<?xml version="1.0" encoding="utf-8"?>
<!-- Generator: Adobe Illustrator 25.1.0, SVG Export Plug-In . SVG Version: 6.00 Build 0)  -->
<svg version="1.1" xmlns="http://www.w3.org/2000/svg" xmlns:xlink="http://www.w3.org/1999/xlink" x="0px" y="0px"
	 viewBox="0 0 210 297" style="enable-background:new 0 0 210 297;" xml:space="preserve">
<style type="text/css">
	.st0{fill:#030303;}
	.st1{fill:#EBE185;}
	.st2{fill:#FCF18D;}
	.st3{fill:none;stroke:#FCF18D;stroke-width:1.3269;stroke-miterlimit:10;}
	.st4{fill:none;stroke:#FCF18D;stroke-width:0.9382;stroke-miterlimit:10;}
	.st5{fill:none;stroke:#FCF18D;stroke-width:1.0345;stroke-miterlimit:10;}
	.st6{fill:none;stroke:#FCF18D;stroke-width:1.5319;stroke-miterlimit:10;}
	.st7{fill:none;stroke:#FCF18D;stroke-width:0.6634;stroke-miterlimit:10;}
	.st8{display:none;}
	.st9{display:inline;fill:#FCF18D;}
</style>
<g id="Calque_1">
	<ellipse class="st0" cx="102.65" cy="170.44" rx="82.99" ry="20.31"/>
	<path class="st1" d="M103.55,139.26c-51.45,0-93.16,15.75-93.16,35.16c0,19.43,41.7,35.16,93.16,35.16
		c51.45,0,93.16-15.73,93.16-35.16C196.71,155.01,155,139.26,103.55,139.26z M103.55,191.06c-45.33,0-73.78-11.43-73.78-20.63
		c0-9.17,28.44-12.65,73.78-12.65s77.23,7.47,77.23,16.64C180.78,183.62,148.88,191.06,103.55,191.06z"/>
	<path class="st2" d="M101.74,129.92c-51.45,0-93.16,16.02-93.16,35.76c0,19.76,41.7,35.76,93.16,35.76
		c51.45,0,93.16-16,93.16-35.76C194.9,145.94,153.19,129.92,101.74,129.92z M101.74,182.61c-45.33,0-79.78-7.57-79.78-16.92
		c0-9.33,34.45-16.92,79.78-16.92s82.09,7.59,82.09,16.92C183.83,175.03,147.07,182.61,101.74,182.61z"/>
	<path class="st3" d="M59.06,165.68c0,0,2.91,5.28,17.12,4.75s22.94,3.02,23.28,3.99"/>
	<ellipse class="st4" cx="132.83" cy="169.3" rx="1.86" ry="0.93"/>
	<ellipse class="st5" cx="110.52" cy="174.37" rx="1.64" ry="1"/>
	<ellipse class="st5" cx="149.97" cy="175.37" rx="1.64" ry="1"/>
	<ellipse class="st5" cx="74.72" cy="177.65" rx="1.64" ry="1"/>
	<ellipse class="st6" cx="47.63" cy="171.23" rx="1.16" ry="0.79"/>
	<circle class="st7" cx="162.16" cy="172.39" r="0.38"/>
	<ellipse class="st6" cx="84.48" cy="164.26" rx="2.61" ry="1.28"/>
	<path class="st5" d="M146.03,164.26c0,0-3.51,4.4-2.74,10.16"/>
</g>
<g id="Calque_2" class="st8">
	<path class="st9" d="M107.87,46.83c-51.44,0-93.14,41.69-93.14,93.13s41.7,93.14,93.14,93.14S201,191.4,201,139.96
		S159.31,46.83,107.87,46.83z M81.18,183.26v-86.6l37.5,21.65l37.5,21.65L81.18,183.26z"/>
</g>
</svg>
